<svg width="66" height="24" viewBox="0 0 66 24" fill="none" xmlns="http://www.w3.org/2000/svg">
<g clip-path="url(#clip0_15_386)">
<mask id="mask0_15_386" style="mask-type:luminance" maskUnits="userSpaceOnUse" x="0" y="0" width="24" height="24">
<path d="M23.6943 0H0.1698V23.2719H23.6943V0Z" fill="white"/>
</mask>
<g mask="url(#mask0_15_386)">
<path d="M11.9321 -0.00164171C11.7844 -0.00198613 11.6369 0.0119321 11.4919 0.0399153C11.3495 0.0692493 11.2101 0.110969 11.0752 0.164586C10.9376 0.219016 10.8055 0.285786 10.6803 0.364059C10.5553 0.442456 10.4382 0.532641 10.3308 0.63335C10.2235 0.735331 10.1256 0.846592 10.0384 0.965806C9.95158 1.08435 9.8762 1.21068 9.81323 1.34314C9.75029 1.47613 9.70022 1.61472 9.66368 1.75705C9.627 1.89859 9.60449 2.04335 9.59647 2.18924L3.81783 5.04005C3.30119 4.70252 2.67087 4.58008 2.06357 4.69929C1.91208 4.72864 1.764 4.7732 1.62165 4.83227C1.47953 4.89081 1.34337 4.96262 1.21501 5.0467C0.958341 5.21641 0.737951 5.43443 0.566402 5.68834C0.48072 5.81492 0.408102 5.94968 0.34964 6.09061C0.290694 6.23171 0.245676 6.37812 0.215214 6.52779C0.124581 6.97934 0.171362 7.44734 0.34964 7.87258C0.408102 8.01351 0.48072 8.14827 0.566402 8.27485C0.737951 8.52876 0.958341 8.74678 1.21501 8.91649C1.34337 9.00058 1.47953 9.07238 1.62165 9.13093C1.764 9.18999 1.91208 9.23455 2.06357 9.26391C2.21461 9.29381 2.36827 9.30884 2.5223 9.30879C2.98288 9.31128 3.43362 9.17693 3.81615 8.92314L9.58806 11.7773C9.59875 11.9677 9.63434 12.156 9.69392 12.3375C9.75183 12.5201 9.83255 12.6949 9.93421 12.8578C10.0365 13.0198 10.1578 13.1693 10.2955 13.3032C10.4343 13.436 10.5889 13.5515 10.7559 13.6473V18.9317L10.6366 19.0032L4.86803 16.1491C4.86001 16.0032 4.8375 15.8584 4.80082 15.7169C4.68917 15.2877 4.45599 14.899 4.12869 14.5965C4.02091 14.4962 3.9039 14.406 3.77918 14.3272C3.52871 14.1698 3.25054 14.0604 2.95918 14.0047C2.81528 13.9766 2.66899 13.9621 2.5223 13.9615C2.36827 13.9615 2.21461 13.9765 2.06357 14.0064C1.91208 14.0357 1.764 14.0803 1.62165 14.1394C1.47953 14.1979 1.34337 14.2697 1.21501 14.3538C0.958341 14.5235 0.737951 14.7415 0.566402 14.9954C0.48072 15.122 0.408102 15.2568 0.34964 15.3977C0.290694 15.5388 0.245676 15.6852 0.215214 15.8349C0.124581 16.2864 0.171362 16.7544 0.34964 17.1797C0.408102 17.3206 0.48072 17.4554 0.566402 17.582C0.737951 17.8359 0.958341 18.0539 1.21501 18.2236C1.34337 18.3077 1.47953 18.3795 1.62165 18.438C1.764 18.4971 1.91208 18.5417 2.06357 18.571C2.21461 18.6009 2.36827 18.6159 2.5223 18.6159C2.98288 18.6184 3.43362 18.484 3.81615 18.2302L9.58806 21.0844C9.59609 21.2303 9.6186 21.375 9.65528 21.5166C9.72825 21.8015 9.85542 22.07 10.03 22.3078C10.1172 22.427 10.2151 22.5383 10.3224 22.6403C10.4298 22.741 10.5469 22.8312 10.6719 22.9096C10.7999 22.9866 10.9349 23.0517 11.0752 23.104C11.2126 23.1583 11.3549 23.1995 11.5003 23.2271C11.6453 23.255 11.7928 23.269 11.9405 23.2686C12.0888 23.2689 12.2368 23.255 12.3824 23.2271C12.5276 23.1987 12.6699 23.1576 12.8076 23.104C12.9449 23.0493 13.0771 22.9825 13.2024 22.9046C13.3272 22.8252 13.4442 22.7345 13.552 22.6336C13.6605 22.5328 13.7585 22.4215 13.8443 22.3012C14.1074 21.9432 14.2609 21.5179 14.2863 21.0761L20.0548 18.2253C20.4351 18.479 20.8832 18.615 21.3419 18.6159C21.496 18.6159 21.6496 18.6009 21.8007 18.571C21.9522 18.5417 22.1002 18.4971 22.2426 18.438C22.3849 18.3798 22.5211 18.308 22.6492 18.2236C22.7775 18.1393 22.8968 18.0424 23.0055 17.9344C23.1142 17.8266 23.2122 17.7085 23.2978 17.582C23.3847 17.4558 23.4579 17.321 23.5163 17.1797C23.694 16.7543 23.7402 16.2863 23.649 15.8349C23.6199 15.6851 23.5754 15.5386 23.5163 15.3977C23.4579 15.2564 23.3847 15.1216 23.2978 14.9954C23.2122 14.8689 23.1142 14.7508 23.0055 14.643C22.8968 14.535 22.7775 14.4381 22.6492 14.3538C22.5211 14.2694 22.3849 14.1976 22.2426 14.1394C22.1002 14.0803 21.9522 14.0357 21.8007 14.0064C21.6496 13.9765 21.496 13.9615 21.3419 13.9615C21.1942 13.9612 21.0467 13.9751 20.9017 14.0031C20.7593 14.0324 20.6199 14.0741 20.485 14.1277C20.3475 14.1822 20.2153 14.2489 20.0901 14.3272C19.9651 14.4056 19.848 14.4958 19.7406 14.5965C19.6333 14.6985 19.5355 14.8097 19.4482 14.929C19.3614 15.0475 19.286 15.1738 19.223 15.3063C19.1601 15.4393 19.11 15.5779 19.0735 15.7202C19.0368 15.8617 19.0143 16.0065 19.0063 16.1524L13.236 19.0065L13.1167 18.9367V13.6507C13.6238 13.3603 14.0031 12.8932 14.1804 12.3408C14.2392 12.1592 14.2747 11.971 14.2863 11.7806L20.0548 8.92647C20.4363 9.17667 20.8842 9.30916 21.3419 9.30713C21.496 9.30718 21.6496 9.29214 21.8007 9.26224C21.9522 9.23289 22.1002 9.18833 22.2426 9.12926C22.3849 9.07107 22.5211 8.99925 22.6492 8.91483C22.7775 8.8305 22.8968 8.7336 23.0055 8.62559C23.1142 8.51779 23.2122 8.39976 23.2978 8.27319C23.3847 8.14703 23.4579 8.0122 23.5163 7.87092C23.694 7.44551 23.7402 6.97752 23.649 6.52613C23.6199 6.37632 23.5754 6.22983 23.5163 6.08895C23.4579 5.94766 23.3847 5.81283 23.2978 5.68668C23.2122 5.56011 23.1142 5.44208 23.0055 5.33428C22.8968 5.22627 22.7775 5.12937 22.6492 5.04504C22.5211 4.96062 22.3849 4.8888 22.2426 4.83061C22.1002 4.77154 21.9522 4.72698 21.8007 4.69762C21.6496 4.66773 21.496 4.65269 21.3419 4.65274C21.1942 4.6524 21.0467 4.66632 20.9017 4.6943C20.7593 4.72363 20.6199 4.76535 20.485 4.81897C20.3475 4.8734 20.2153 4.94017 20.0901 5.01844C19.9651 5.09684 19.848 5.18703 19.7406 5.28773C19.6333 5.38971 19.5355 5.50098 19.4482 5.62019C19.3614 5.73873 19.286 5.86506 19.223 5.99753C19.1601 6.13052 19.11 6.26911 19.0735 6.41143C19.0368 6.55297 19.0143 6.69773 19.0063 6.84363L13.226 9.69444C12.8417 9.44385 12.3915 9.31029 11.9313 9.31029C11.471 9.31029 11.0209 9.44385 10.6366 9.69444L5.15369 6.97993L10.6366 4.26709C11.0199 4.52064 11.471 4.65495 11.9321 4.65274C12.0861 4.65279 12.2398 4.63776 12.3908 4.60786C12.5423 4.5785 12.6904 4.53394 12.8328 4.47488C12.9751 4.41669 13.1113 4.34487 13.2394 4.26044C13.3677 4.17612 13.487 4.07921 13.5956 3.97121C13.7044 3.8634 13.8023 3.74538 13.888 3.6188C13.9749 3.49265 14.0481 3.35782 14.1065 3.21653C14.2842 2.79112 14.3304 2.32313 14.2392 1.87175C14.2101 1.72193 14.1656 1.57545 14.1065 1.43457C14.0481 1.29328 13.9749 1.15845 13.888 1.0323C13.8023 0.905722 13.7044 0.787698 13.5956 0.679894C13.487 0.571887 13.3677 0.474984 13.2394 0.390656C13.1113 0.306232 12.9751 0.234413 12.8328 0.176223C12.6904 0.117158 12.5423 0.0725993 12.3908 0.0432406C12.2398 0.0133422 12.0861 -0.00169234 11.9321 -0.00164171Z" fill="#040404"/>
</g>
<path d="M29.9434 8.96467C30.2572 8.96565 30.5691 8.9174 30.8676 8.82171C31.0976 8.75479 31.3192 8.66222 31.528 8.54578L31.738 8.40282L32.6252 10.1599C32.5933 10.1798 32.553 10.2097 32.5026 10.2463C32.3857 10.3204 32.2651 10.3887 32.1413 10.4507C31.9479 10.5524 31.7467 10.6391 31.5398 10.7101C31.2651 10.7956 30.9842 10.8601 30.6996 10.9029C30.3442 10.9618 29.9845 10.9913 29.6242 10.991C28.7745 10.9866 27.9396 10.7712 27.1959 10.3646C26.4522 9.95802 25.8237 9.37319 25.3679 8.6638C24.9674 8.04821 24.7307 7.34244 24.6799 6.6121C24.6291 5.88176 24.7658 5.15056 25.0772 4.48649C25.3375 3.92116 25.7088 3.41263 26.1694 2.99044C26.6348 2.56673 27.1732 2.22893 27.759 1.99307C28.3483 1.74712 28.9813 1.61997 29.6208 1.61906C30.1728 1.61438 30.7229 1.68429 31.2558 1.82684C31.6269 1.91304 31.983 2.05308 32.3127 2.24241L32.6252 2.4502L31.7431 4.20556C31.6696 4.14434 31.5915 4.08877 31.5095 4.03933C31.3108 3.93941 31.1032 3.85762 30.8895 3.79498C30.5867 3.69192 30.2687 3.63912 29.9485 3.63872C29.4887 3.63246 29.0321 3.71489 28.6042 3.88142C28.2417 4.01717 27.9165 4.23525 27.6548 4.51807C27.4293 4.76825 27.2491 5.05504 27.1222 5.36583C27.003 5.66031 26.9414 5.97451 26.9407 6.29172C26.9389 6.98551 27.2157 7.6516 27.7103 8.1435C28.2301 8.69095 28.9745 8.96467 29.9434 8.96467Z" fill="#040404"/>
<path d="M33.4235 1.78195H36.0733C36.6752 1.77144 37.2732 1.87999 37.8321 2.10122C38.391 2.32244 38.8997 2.65189 39.3281 3.07021C40.1941 3.92877 40.6805 5.09212 40.6805 6.30501C40.6805 7.5179 40.1941 8.68125 39.3281 9.53981C38.8987 9.95871 38.3889 10.2885 37.8289 10.5097C37.2688 10.7309 36.6696 10.8392 36.0666 10.8281H33.4235V1.78195ZM35.5054 8.9846H35.828C36.1758 8.99653 36.5221 8.93477 36.8438 8.80346C37.1655 8.67216 37.4551 8.47434 37.6932 8.22328C38.1657 7.69685 38.4276 7.01786 38.4298 6.31386C38.4319 5.60986 38.1742 4.9293 37.7049 4.40004C37.466 4.14631 37.1748 3.94629 36.851 3.81351C36.5272 3.68073 36.1783 3.61829 35.828 3.6304H35.5054V8.9846Z" fill="#040404"/>
<path d="M46.7114 1.78198V9.01955H49.8587V10.8281H44.6278V1.78198H46.7114Z" fill="#040404"/>
<path d="M51.2786 10.1383C50.7639 9.55216 50.4805 8.80189 50.4805 8.0255C50.4805 7.24911 50.7639 6.49884 51.2786 5.91274C51.5324 5.63064 51.8454 5.4067 52.1957 5.25655C52.5459 5.1064 52.9251 5.03365 53.3068 5.04337C53.6488 5.03172 53.9898 5.08793 54.3095 5.20869C54.6293 5.32946 54.9214 5.51232 55.1686 5.74652V5.2096H57.1295V10.8348H55.1887V10.1964H55.1686C54.9361 10.4563 54.649 10.6627 54.3274 10.8011C54.0058 10.9396 53.6574 11.0066 53.3068 10.9977C52.926 11.0081 52.5475 10.9366 52.1973 10.7882C51.8471 10.6399 51.5337 10.4181 51.2786 10.1383ZM52.9455 7.07301C52.7484 7.25525 52.6122 7.49265 52.555 7.75349C52.4979 8.01433 52.5226 8.28621 52.6258 8.53282C52.7289 8.77942 52.9057 8.98901 53.1325 9.13361C53.3593 9.2782 53.6252 9.35091 53.8949 9.34203C54.0701 9.34811 54.2448 9.31832 54.4078 9.25453C54.5709 9.19075 54.7189 9.09434 54.8426 8.97134C55.0837 8.71204 55.2165 8.37189 55.214 8.01956C55.2115 7.66722 55.0739 7.32894 54.8291 7.07301C54.7071 6.95131 54.5614 6.85541 54.4008 6.79111C54.2402 6.72682 54.0681 6.69548 53.8949 6.699C53.7197 6.69344 53.5453 6.72314 53.3821 6.78629C53.2189 6.84944 53.0703 6.94472 52.9455 7.06637V7.07301Z" fill="#040404"/>
<path d="M64.3145 5.90605C64.8292 6.49215 65.1126 7.24242 65.1126 8.01881C65.1126 8.7952 64.8292 9.54547 64.3145 10.1316C64.0588 10.4117 63.7448 10.6336 63.3941 10.7819C63.0434 10.9303 62.6643 11.0016 62.2829 10.991C61.9323 11.0003 61.5838 10.9334 61.2621 10.7949C60.9404 10.6565 60.6533 10.4499 60.4211 10.1897H60.3993V10.8281H58.4602V1.39795H60.4211V5.73982C60.6682 5.5054 60.9602 5.32238 61.28 5.2016C61.5998 5.08083 61.9408 5.02475 62.2829 5.03668C62.6651 5.0267 63.0449 5.09931 63.3957 5.24947C63.7466 5.39962 64.0601 5.62369 64.3145 5.90605ZM62.661 8.97462C62.8517 8.78822 62.9817 8.54966 63.0343 8.2896C63.0869 8.02955 63.0597 7.75987 62.9562 7.51522C62.8527 7.27057 62.6776 7.06213 62.4535 6.91668C62.2293 6.77123 61.9663 6.69541 61.6982 6.69896C61.5249 6.69515 61.3527 6.72635 61.1921 6.79066C61.0314 6.85497 60.8857 6.95104 60.7639 7.07297C60.5207 7.32988 60.3845 7.66819 60.3826 8.02018C60.3808 8.37217 60.5133 8.71188 60.7538 8.9713C60.8769 9.09412 61.0244 9.19045 61.1869 9.25424C61.3494 9.31803 61.5235 9.34791 61.6982 9.34199C61.8756 9.34958 62.0527 9.32087 62.2183 9.25766C62.384 9.19444 62.5347 9.09809 62.661 8.97462Z" fill="#040404"/>
<path d="M25.2 12.1047H28.4699C29.3481 12.1047 30.0645 12.3363 30.619 12.7996C31.1735 13.2628 31.4536 13.9277 31.4592 14.7943C31.481 15.3913 31.3039 15.9789 30.9551 16.4666C30.6144 16.919 30.1353 17.2507 29.589 17.4124L32.7362 21.1525H30.0763L27.2836 17.5786V21.1525H25.2V12.1047ZM27.2836 16.1225H27.5289C27.7188 16.1225 27.8817 16.1225 28.0145 16.1125C28.1685 16.1005 28.321 16.0738 28.4699 16.0327C28.6174 15.9991 28.7567 15.937 28.8799 15.8499C28.9935 15.7539 29.0842 15.634 29.1454 15.4991C29.2244 15.3229 29.2629 15.1316 29.2579 14.9389C29.2631 14.7468 29.2246 14.5559 29.1454 14.3804C29.084 14.2451 28.9934 14.1248 28.8799 14.028C28.7575 13.9385 28.618 13.8745 28.4699 13.8402C28.3208 13.8008 28.1683 13.7752 28.0145 13.7637C27.8817 13.7637 27.7188 13.7537 27.5289 13.7537H27.2836V16.1225Z" fill="#040404"/>
<path d="M38.8878 18.6043H34.7676C34.7551 18.771 34.7839 18.9383 34.8515 19.0915C34.9192 19.2448 35.0236 19.3793 35.1558 19.4836C35.3968 19.6668 35.692 19.7667 35.9959 19.7678C36.2529 19.7786 36.5093 19.7361 36.7487 19.6432C36.9881 19.5155 37.2026 19.3466 37.3822 19.1445L38.8004 19.8443C38.2089 20.8228 37.2265 21.3121 35.8531 21.3121C35.4451 21.3194 35.0396 21.2465 34.6603 21.0975C34.281 20.9486 33.9354 20.7266 33.6435 20.4444C33.3537 20.1744 33.1229 19.8487 32.965 19.4872C32.8072 19.1258 32.7258 18.7362 32.7258 18.3424C32.7258 17.9487 32.8072 17.5591 32.965 17.1976C33.1229 16.8362 33.3537 16.5104 33.6435 16.2405C33.9338 15.9554 34.2789 15.7307 34.6584 15.5797C35.0379 15.4286 35.4441 15.3543 35.8531 15.3611C36.7493 15.3611 37.4819 15.6199 38.051 16.1374C38.62 16.655 38.9001 17.3913 38.8911 18.3466C38.8953 18.4325 38.8942 18.5185 38.8878 18.6043ZM34.8197 17.5304H36.9823C36.9536 17.2734 36.829 17.0363 36.6328 16.8655C36.428 16.7004 36.1691 16.6152 35.9052 16.6261C35.6242 16.6118 35.3479 16.7019 35.1306 16.8788C35.0369 16.961 34.9611 17.0611 34.9076 17.1731C34.8542 17.2851 34.8243 17.4067 34.8197 17.5304Z" fill="#040404"/>
<path d="M42.8433 16.9536C42.6646 16.9521 42.4877 16.9877 42.3238 17.0581C42.16 17.1286 42.0129 17.2323 41.8922 17.3625C41.7628 17.4896 41.6607 17.6413 41.592 17.8084C41.5232 17.9755 41.4893 18.1546 41.4923 18.335C41.4882 18.5177 41.5215 18.6994 41.5902 18.8691C41.6589 19.0388 41.7617 19.193 41.8922 19.3224C42.0134 19.4518 42.1606 19.5548 42.3244 19.6247C42.4882 19.6945 42.6649 19.7297 42.8433 19.7279C43.0136 19.7293 43.1833 19.7069 43.3474 19.6615C43.4696 19.6327 43.5876 19.5886 43.6986 19.5301L43.7994 19.4653L44.4715 20.8151C44.4177 20.8517 44.3438 20.8982 44.2514 20.953C44.0496 21.0483 43.8384 21.123 43.6213 21.1758C43.2773 21.2714 42.9216 21.3189 42.5643 21.3171C41.7405 21.3245 40.9469 21.011 40.3547 20.4444C40.0555 20.1835 39.8163 19.8621 39.6534 19.5019C39.4905 19.1417 39.4076 18.7512 39.4104 18.3566C39.4071 17.9583 39.4896 17.5638 39.6524 17.1995C39.8152 16.8352 40.0547 16.5094 40.3547 16.2438C40.9423 15.6732 41.7343 15.3558 42.5576 15.3611C42.9082 15.3578 43.2576 15.4019 43.5961 15.4925C43.8314 15.5486 44.0576 15.637 44.2682 15.7551L44.4581 15.8881L43.7859 17.2179C43.5074 17.0343 43.1777 16.9419 42.8433 16.9536Z" fill="#040404"/>
<path d="M48.6287 11.9418C49.1213 11.9412 49.6112 12.0135 50.0821 12.1563C50.4488 12.2542 50.8025 12.3948 51.1357 12.5752L51.4718 12.7963L50.6316 14.4386C50.5661 14.3954 50.4737 14.3372 50.3544 14.2724C50.1381 14.1623 49.9134 14.0695 49.6822 13.9948C49.3932 13.8838 49.0866 13.8241 48.7765 13.8186C48.4908 13.8008 48.2072 13.8787 47.9716 14.0396C47.88 14.1079 47.8064 14.1971 47.7569 14.2995C47.7075 14.4019 47.6837 14.5147 47.6877 14.6281C47.6884 14.7559 47.7355 14.8792 47.8204 14.9755C47.9516 15.1115 48.1057 15.224 48.2758 15.308C48.4892 15.4276 48.6774 15.5241 48.8387 15.5989C49 15.6737 49.2537 15.7817 49.5948 15.9313C50.1626 16.1655 50.6769 16.5104 51.1071 16.9453C51.3042 17.1336 51.4612 17.359 51.5688 17.6082C51.6764 17.8574 51.7326 18.1255 51.7339 18.3965C51.7447 18.8657 51.6476 19.3312 51.4499 19.7579C51.279 20.1253 51.0107 20.44 50.6736 20.6688C50.3412 20.8903 49.973 21.0539 49.5848 21.1525C49.1611 21.2642 48.7243 21.3201 48.2859 21.3188C47.8906 21.3194 47.4963 21.2787 47.1096 21.1974C46.7782 21.1352 46.4551 21.0354 46.1468 20.8999C45.8881 20.7791 45.6545 20.6599 45.4461 20.5425C45.2872 20.4571 45.1364 20.3575 44.9958 20.2449L44.8496 20.1119L45.8897 18.3815C45.9788 18.4563 46.0998 18.5477 46.2544 18.6608C46.5162 18.8353 46.7922 18.9882 47.0794 19.1179C47.4035 19.2893 47.7624 19.3864 48.1296 19.4022C49.0101 19.4022 49.4503 19.1057 49.4503 18.5128C49.4509 18.3924 49.4184 18.274 49.3562 18.1704C49.2687 18.0414 49.1541 17.9325 49.0202 17.8512C48.8843 17.7587 48.7429 17.6743 48.5967 17.5986C48.4741 17.5354 48.2741 17.4423 47.9969 17.3143C47.7196 17.1863 47.518 17.0883 47.3852 17.0234C46.8797 16.7925 46.4377 16.4447 46.0964 16.0094C45.8054 15.632 45.6467 15.171 45.6444 14.6962C45.6333 14.3175 45.7092 13.9412 45.8664 13.5957C46.0235 13.2502 46.2579 12.9445 46.5518 12.7015C47.1259 12.2039 47.8654 11.9334 48.6287 11.9418Z" fill="#040404"/>
<path d="M57.0219 15.5257H59.2802L54.8173 24.0033H52.5556L54.5165 20.2782L51.828 15.5307H54.0914L55.6743 18.4114L57.0219 15.5257Z" fill="#040404"/>
<path d="M62.1973 15.3595C62.5215 15.3593 62.8447 15.3967 63.1601 15.4709C63.4036 15.5204 63.6417 15.5934 63.8709 15.6886L64.1044 15.7983L63.4609 17.07C63.075 16.8529 62.641 16.733 62.1973 16.7209C62.0365 16.7099 61.8752 16.7343 61.7251 16.7924C61.6782 16.8187 61.6401 16.8582 61.6156 16.9057C61.5911 16.9533 61.5813 17.007 61.5873 17.06C61.5871 17.0903 61.591 17.1205 61.5991 17.1498C61.6062 17.1794 61.6206 17.2068 61.6411 17.2296C61.6601 17.2527 61.6809 17.2744 61.7033 17.2944C61.7312 17.3201 61.7629 17.3414 61.7974 17.3576L61.9032 17.4058C61.9284 17.4174 61.9704 17.4357 62.0292 17.4573L62.162 17.5072L62.3132 17.5554C62.3821 17.5753 62.4359 17.5903 62.4728 17.5969C62.6782 17.6554 62.8788 17.7293 63.0727 17.818C63.2621 17.91 63.4412 18.0214 63.6071 18.1505C63.7951 18.2875 63.9458 18.4686 64.0456 18.6774C64.1538 18.902 64.2079 19.1484 64.2036 19.3972C64.2036 20.6771 63.3074 21.3166 61.5151 21.3154C61.1217 21.3171 60.7306 21.2553 60.3573 21.1326C60.0747 21.0486 59.8067 20.9225 59.5625 20.7586L59.3206 20.5608L60.1187 19.2309C60.1926 19.2949 60.2701 19.3548 60.3506 19.4105C60.5159 19.5204 60.6902 19.6166 60.8715 19.6981C61.0736 19.8059 61.2975 19.8678 61.5268 19.8792C61.9318 19.8792 62.1351 19.7429 62.1351 19.4736C62.1367 19.4157 62.1229 19.3584 62.0952 19.3074C62.0675 19.2564 62.0268 19.2134 61.9771 19.1827C61.8122 19.0843 61.6363 19.0051 61.4529 18.9467C61.2532 18.8802 61.0589 18.7991 60.8715 18.704C60.555 18.5506 60.2702 18.3403 60.0313 18.084C59.8169 17.828 59.7072 17.5018 59.7238 17.1697C59.7143 16.9101 59.7709 16.6523 59.8883 16.4199C60.0058 16.1876 60.1803 15.9881 60.396 15.8399C60.8351 15.5207 61.4355 15.3606 62.1973 15.3595Z" fill="#040404"/>
</g>
<defs>
<clipPath id="clip0_15_386">
<rect width="64.9412" height="24" fill="white" transform="translate(0.1698)"/>
</clipPath>
</defs>
</svg>
